<svg width="30" height="30" viewBox="0 0 30 30" fill="none" xmlns="http://www.w3.org/2000/svg">
<path d="M30 15C30 23.2843 23.2843 30 15 30C6.71573 30 0 23.2843 0 15C0 6.71573 6.71573 0 15 0C23.2843 0 30 6.71573 30 15Z" fill="#92BC2C"/>
<path fill-rule="evenodd" clip-rule="evenodd" d="M17.6937 7.01567C17.7053 6.99905 17.7282 6.99501 17.7448 7.00665L18.8809 7.80213C18.8975 7.81377 18.9016 7.83667 18.8899 7.85328L17.3087 10.1115C18.0774 10.3571 18.6012 10.622 18.6012 10.622C18.6012 10.622 17.321 12.8239 15.1498 12.8239C12.9786 12.8239 11.4358 10.7717 11.4358 10.7717C11.4358 10.7717 11.9828 10.4225 12.7937 10.1231L11.0594 8.05618C11.0463 8.04063 11.0484 8.01747 11.0639 8.00443L12.1263 7.11296C12.1419 7.09992 12.165 7.10195 12.1781 7.11749L14.3741 9.73458C14.5621 9.71331 14.7537 9.70142 14.947 9.70142C15.2248 9.70142 15.5023 9.72254 15.7732 9.75838L17.6937 7.01567ZM18.1232 12.9282C18.7027 12.5144 19.5794 11.4343 19.5794 11.4343C19.5794 11.4343 21.8189 13.209 21.8189 16.972C21.8189 20.735 17.9472 22.9998 17.9472 22.9998C17.9472 22.9998 16.0973 21.1316 15.6432 18.7634C15.1891 16.3953 16.3149 13.7657 16.3149 13.7657C16.3149 13.7657 17.5438 13.342 18.1232 12.9282ZM11.8832 12.9282C11.3037 12.5144 10.427 11.4343 10.427 11.4343C10.427 11.4343 8.1875 13.209 8.1875 16.972C8.1875 20.735 12.0592 22.9998 12.0592 22.9998C12.0592 22.9998 13.9091 21.1316 14.3632 18.7634C14.8173 16.3953 13.6915 13.7657 13.6915 13.7657C13.6915 13.7657 12.4626 13.342 11.8832 12.9282Z" fill="white"/>
</svg>
