<svg width="30" height="30" viewBox="0 0 30 30" fill="none" xmlns="http://www.w3.org/2000/svg">
<path d="M30 15C30 23.2843 23.2843 30 15 30C6.71573 30 0 23.2843 0 15C0 6.71573 6.71573 0 15 0C23.2843 0 30 6.71573 30 15Z" fill="#595761"/>
<path fill-rule="evenodd" clip-rule="evenodd" d="M14.1681 21.1516C14.4721 21.1981 14.7834 21.2222 15.1004 21.2222C18.4754 21.2222 21.2115 18.4862 21.2115 15.1111C21.2115 11.736 18.4754 9 15.1004 9C14.8739 9 14.6503 9.01232 14.4303 9.03632C16.1045 10.3047 17.2115 12.5019 17.2115 15C17.2115 17.6263 15.988 19.92 14.1681 21.1516ZM14.9893 23C19.4075 23 22.9893 19.4183 22.9893 15C22.9893 10.5817 19.4075 7 14.9893 7C10.571 7 6.98926 10.5817 6.98926 15C6.98926 19.4183 10.571 23 14.9893 23Z" fill="white"/>
</svg>
