<svg width="30" height="30" viewBox="0 0 30 30" fill="none" xmlns="http://www.w3.org/2000/svg">
<path d="M30 15C30 23.2843 23.2843 30 15 30C6.71573 30 0 23.2843 0 15C0 6.71573 6.71573 0 15 0C23.2843 0 30 6.71573 30 15Z" fill="#0C69C8"/>
<path fill-rule="evenodd" clip-rule="evenodd" d="M15.7719 14.965C15.8804 14.8989 15.9724 14.7603 16.0466 14.6063C17.023 15.0054 17.7091 15.9484 17.7091 17.0481C17.7091 18.5091 16.4982 19.6934 15.0044 19.6934C14.3912 19.6934 13.8257 19.4938 13.3721 19.1575C13.2233 19.087 13.1008 19.0193 13.0006 18.9639C12.8452 18.878 12.7433 18.8217 12.6795 18.8305C12.493 18.8562 12.5471 19.0278 12.5963 19.1837C12.6298 19.2896 12.6609 19.3883 12.6127 19.429C12.5623 19.4716 12.3989 19.3158 12.208 19.1338C11.9481 18.886 11.6372 18.5896 11.4906 18.6787C11.3747 18.7491 11.4873 18.94 11.625 19.1738L11.6352 19.1911C11.6934 19.2899 11.7608 19.3906 11.8224 19.4824C11.9475 19.669 12.0482 19.8193 11.9978 19.8448C11.9369 19.8755 11.5123 19.589 11.1545 19.1911C11.0164 19.0376 10.8827 18.8712 10.7584 18.7165C10.4863 18.3779 10.2596 18.0959 10.1323 18.1293C9.97927 18.1695 10.0951 18.4852 10.2652 18.7891C10.3448 18.9312 10.4384 19.0758 10.5194 19.2011C10.6454 19.3959 10.7411 19.5438 10.7064 19.562C10.6596 19.5865 10.2477 19.1848 9.96792 18.6787C9.80175 18.378 9.66222 18.0457 9.54925 17.7768C9.42675 17.4851 9.3355 17.2678 9.27541 17.2459C9.06664 17.1699 9.06664 17.5956 9.15037 18.2099C9.16129 18.2901 9.17756 18.3742 9.19759 18.4598C10.0096 21.087 12.504 23 15.4552 23C19.0651 23 21.9915 20.1379 21.9915 16.6073C21.9915 13.2469 19.3406 10.4921 15.9725 10.2342C15.9767 10.0759 16.0594 9.76197 16.0594 9.76197C16.0594 9.76197 16.654 8.32335 16.6854 8.01593C16.6875 7.99553 16.6899 7.97336 16.6926 7.94975C16.7296 7.61759 16.7985 7 16.2672 7C15.9835 7 15.8515 7.21108 15.7006 7.4525C15.6427 7.54518 15.5819 7.64233 15.5087 7.73372C14.9816 8.39199 14.0952 9.21402 13.5927 9.65197C12.5303 10.5776 11.4881 11.3384 10.8802 11.7821C10.6037 11.9838 10.4171 12.1201 10.3594 12.1764C9.92419 12.6006 8.36381 15.4152 8.36381 15.4152C8.36381 15.4152 7.8592 16.3182 8.03856 16.5013C8.21792 16.6845 8.65044 16.6425 8.65044 16.6425C8.65044 16.6425 14.4611 15.3095 14.9813 15.2043C15.1214 15.176 15.2202 15.1597 15.2962 15.1472C15.5022 15.1131 15.5392 15.107 15.7719 14.965ZM11.6636 13.252C11.3517 13.5485 10.8344 14.2561 10.8344 14.2561C10.8344 14.2561 11.7958 14.3153 12.3253 13.8121C12.8548 13.3087 12.7334 12.451 12.7334 12.451C12.7334 12.451 11.9755 12.9555 11.6636 13.252Z" fill="white"/>
</svg>
