<svg width="30" height="30" viewBox="0 0 30 30" fill="none" xmlns="http://www.w3.org/2000/svg">
<path d="M30 15C30 23.2843 23.2843 30 15 30C6.71573 30 0 23.2843 0 15C0 6.71573 6.71573 0 15 0C23.2843 0 30 6.71573 30 15Z" fill="#F2D94E"/>
<path fill-rule="evenodd" clip-rule="evenodd" d="M11.7675 7.01824C11.7644 7.00931 11.7711 7 11.7805 7H17.4002C17.4062 7 17.4115 7.00392 17.4133 7.00968L19.9945 15.3491C19.9972 15.3579 19.9906 15.3669 19.9813 15.3669H16.2401C16.2356 15.3669 16.2323 15.3712 16.2335 15.3757L18.3792 22.9289C18.3834 22.9436 18.3642 22.9532 18.355 22.941L10.0165 11.8521C10.0097 11.843 10.0162 11.8301 10.0275 11.8301H13.423C13.4277 11.8301 13.431 11.8254 13.4295 11.821L11.7675 7.01824Z" fill="white"/>
</svg>
