<svg width="30" height="30" viewBox="0 0 30 30" fill="none" xmlns="http://www.w3.org/2000/svg">
<path d="M30 15C30 23.2843 23.2843 30 15 30C6.71573 30 0 23.2843 0 15C0 6.71573 6.71573 0 15 0C23.2843 0 30 6.71573 30 15Z" fill="#EE90E6"/>
<path fill-rule="evenodd" clip-rule="evenodd" d="M10.2102 19.6868L12.7765 18.9427L14.9931 22.9955C14.996 23.0008 15.0035 23.0008 15.0064 22.9955L17.2229 18.9427L19.7893 19.6868C19.795 19.6885 19.8004 19.6831 19.7987 19.6774L19.0544 17.1618L22.9955 15.0064C23.0008 15.0035 23.0008 14.996 22.9955 14.9931L19.0219 12.8198L19.7987 10.1945C19.8004 10.1888 19.795 10.1834 19.7893 10.1851L17.1628 10.9467L15.0064 7.00394C15.0035 6.99869 14.996 6.99869 14.9931 7.00394L12.8367 10.9467L10.2102 10.1851C10.2044 10.1834 10.1991 10.1888 10.2008 10.1945L10.9775 12.8198L7.00394 14.9931C6.99869 14.996 6.99869 15.0035 7.00394 15.0064L10.945 17.1618L10.2008 19.6774C10.1991 19.6831 10.2044 19.6885 10.2102 19.6868ZM12.2016 15.0274L14.0197 16.0217L15.0141 17.8398C15.0169 17.8451 15.0245 17.8451 15.0274 17.8398L16.0217 16.0217L17.8398 15.0274C17.845 15.0245 17.845 15.0169 17.8398 15.0141L16.0217 14.0197L15.0274 12.2017C15.0245 12.1964 15.0169 12.1964 15.0141 12.2017L14.0197 14.0197L12.2016 15.0141C12.1964 15.0169 12.1964 15.0245 12.2016 15.0274Z" fill="white"/>
</svg>
