<svg width="30" height="30" viewBox="0 0 30 30" fill="none" xmlns="http://www.w3.org/2000/svg">
<path d="M30 15C30 23.2843 23.2843 30 15 30C6.71573 30 0 23.2843 0 15C0 6.71573 6.71573 0 15 0C23.2843 0 30 6.71573 30 15Z" fill="#D3425F"/>
<path fill-rule="evenodd" clip-rule="evenodd" d="M9.7573 8.33018C9.95093 7.56567 10.6435 7 11.4682 7C12.0868 7 12.6311 7.31827 12.9462 7.8H13.4622C13.7828 7.47099 14.2307 7.26667 14.7264 7.26667C15.4531 7.26667 16.0772 7.70588 16.3478 8.33333H16.7798C17.0505 8.16433 17.3704 8.06667 17.7131 8.06667C18.4398 8.06667 19.0639 8.50588 19.3344 9.13333H20.5093C20.5193 9.13333 20.5287 9.13604 20.5368 9.14075C20.5905 9.13584 20.6448 9.13333 20.6997 9.13333C21.6744 9.13333 22.4646 9.92348 22.4646 10.8982V16.1902L22.4646 16.2L22.4646 16.2098V16.286C22.4646 16.3183 22.4637 16.3505 22.4619 16.3825C22.3557 20.0537 19.0547 23 14.9979 23C10.8742 23 7.53125 19.9555 7.53125 16.2C7.53125 14.3872 8.31015 12.7401 9.5798 11.5211C9.57663 13.2884 9.60648 15.1154 9.74408 15.0841C10.1125 15.0001 9.82466 9.52623 9.7573 8.33018Z" fill="white"/>
</svg>
