<svg width="30" height="30" viewBox="0 0 30 30" fill="none" xmlns="http://www.w3.org/2000/svg">
<path d="M30 15C30 23.2843 23.2843 30 15 30C6.71573 30 0 23.2843 0 15C0 6.71573 6.71573 0 15 0C23.2843 0 30 6.71573 30 15Z" fill="#FBA54C"/>
<path fill-rule="evenodd" clip-rule="evenodd" d="M18.0081 19.3561C18.2057 18.6332 17.822 17.1472 17.822 17.1472C17.822 17.1472 17.5437 18.3578 17.1088 18.8052C16.7378 19.1869 16.2833 19.4516 15.6314 19.5212C16.1644 19.2623 16.5309 18.7225 16.5309 18.0986C16.5309 17.2228 15.8087 16.5128 14.9177 16.5128C14.0268 16.5128 13.3045 17.2228 13.3045 18.0986C13.3045 18.3378 13.3584 18.5646 13.4549 18.768C12.8977 18.3241 12.81 17.6123 12.81 17.6123C12.81 17.6123 12.1878 20.1957 13.9023 21.411C15.6169 22.6262 18.9756 21.5817 18.9756 21.5817C18.9756 21.5817 14.1691 24.9637 10.6074 21.2828C7.53928 18.112 9.8066 13.9376 9.8066 13.9376C9.8066 13.9376 9.70868 14.3248 9.70868 14.7744C9.70868 15.2239 9.95241 15.5659 9.95241 15.5659C9.95241 15.5659 10.6794 14.0335 11.2453 13.4102C11.7808 12.8204 12.452 12.3421 13.0318 11.9289C13.4782 11.6108 13.8703 11.3314 14.1045 11.0695C15.3944 9.62715 14.6035 7 14.6035 7C14.6035 7 16.0575 8.28188 16.4635 9.93743C16.6182 10.5685 16.5187 11.2865 16.4297 11.9286C16.2852 12.971 16.1684 13.8133 17.2123 13.7586C18.8992 13.6703 17.4333 11.0695 17.4333 11.0695C17.4333 11.0695 21.2599 13.0807 20.9741 16.5983C20.6882 20.1158 16.7914 20.9155 16.7914 20.9155C16.7914 20.9155 17.8103 20.0789 18.0081 19.3561Z" fill="white"/>
</svg>
