<svg width="30" height="30" viewBox="0 0 30 30" fill="none" xmlns="http://www.w3.org/2000/svg">
<path d="M30 15C30 23.2843 23.2843 30 15 30C6.71573 30 0 23.2843 0 15C0 6.71573 6.71573 0 15 0C23.2843 0 30 6.71573 30 15Z" fill="#A1BBEC"/>
<path fill-rule="evenodd" clip-rule="evenodd" d="M12.5848 21.9292C14.9286 21.9292 16.9352 20.6265 17.7636 18.7799C17.7738 18.7573 14.4377 19.6468 14.5441 19.3324C14.5916 19.192 16.6366 18.4449 18.1265 17.5736C18.9828 17.0727 19.3772 16.0125 19.3772 16.0125C19.3772 16.0125 17.9345 16.713 17.2051 16.8907C15.7354 17.2488 14.4416 17.2102 14.4416 17.1729C14.4416 17.0922 16.5899 16.684 19.5758 14.8645C20.9802 14.0087 21.3617 12.5345 21.3617 12.5345C21.3617 12.5345 19.8176 13.4542 18.8842 13.7579C16.6705 14.478 14.6505 14.695 14.6505 14.5975C14.6505 14.3889 16.4282 13.9001 18.313 12.9868C19.293 12.5119 20.1417 11.8916 21.1252 11.2017C22.7346 10.0729 23 8.0625 23 8.0625C23 8.0625 21.4127 9.08625 20.6381 9.42623C17.4419 10.8291 14.6197 11.565 12.5848 11.7243C9.513 11.9648 7 14.108 7 16.8907C7 19.6733 9.50037 21.9292 12.5848 21.9292Z" fill="white"/>
</svg>
