<svg width="30" height="30" viewBox="0 0 30 30" fill="none" xmlns="http://www.w3.org/2000/svg">
<path d="M30 15C30 23.2843 23.2843 30 15 30C6.71573 30 0 23.2843 0 15C0 6.71573 6.71573 0 15 0C23.2843 0 30 6.71573 30 15Z" fill="#5F6DBC"/>
<path fill-rule="evenodd" clip-rule="evenodd" d="M18.5298 22.9446C17.0865 23.0185 15.4342 23.0185 14.8727 22.9446C10.4928 22.3684 7 19.166 7 14.8375C7 10.509 10.5817 7 15 7C19.4183 7 23 10.509 23 14.8375C23 16.8507 22.2252 18.6865 20.9519 20.0746C20.6061 20.4515 21.0805 20.7159 21.5626 20.9845C22.0353 21.248 22.5154 21.5155 22.2364 21.8973C21.9289 22.3179 20.2623 22.8559 18.5298 22.9446ZM13.875 13.8578C13.875 14.5341 13.3153 15.0824 12.625 15.0824C11.9347 15.0824 11.375 14.5341 11.375 13.8578C11.375 13.4042 11.6267 13.0082 12.0007 12.7966C12.0223 13.3863 12.5072 13.8578 13.1022 13.8578L13.875 13.8578ZM17.7493 12.7966C17.7277 13.3863 17.2428 13.8578 16.6478 13.8578H15.875C15.875 14.5341 16.4347 15.0824 17.125 15.0824C17.8153 15.0824 18.375 14.5341 18.375 13.8578C18.375 13.4042 18.1233 13.0082 17.7493 12.7966Z" fill="white"/>
</svg>
