<svg width="30" height="30" viewBox="0 0 30 30" fill="none" xmlns="http://www.w3.org/2000/svg">
<path d="M30 15C30 23.2843 23.2843 30 15 30C6.71573 30 0 23.2843 0 15C0 6.71573 6.71573 0 15 0C23.2843 0 30 6.71573 30 15Z" fill="#5FBD58"/>
<path fill-rule="evenodd" clip-rule="evenodd" d="M10.0441 20.7703C9.98921 20.7186 9.9349 20.666 9.88122 20.6123C7.04732 17.7784 7.04732 13.1838 9.88122 10.3499C12.7151 7.51597 21.745 7.32639 21.745 7.32639C21.745 7.32639 22.9775 17.7784 20.1437 20.6123C17.6268 23.1292 13.7211 23.4107 10.8935 21.457L13.1719 18.661L16.8141 17.8747L13.841 17.5775L15.7304 15.6537L17.8812 15.1825L16.1805 14.6788L17.8812 11.6108L15.4621 14.3242L14.5279 13.006L14.8568 15.1825L13.1719 17.0819L12.3908 14.6788V17.8747L10.0441 20.7703Z" fill="white"/>
</svg>
