<svg width="30" height="30" viewBox="0 0 30 30" fill="none" xmlns="http://www.w3.org/2000/svg">
<path d="M30 15C30 23.2843 23.2843 30 15 30C6.71573 30 0 23.2843 0 15C0 6.71573 6.71573 0 15 0C23.2843 0 30 6.71573 30 15Z" fill="#DA7C4D"/>
<path fill-rule="evenodd" clip-rule="evenodd" d="M10.5239 20.7423C10.5195 20.7423 10.5165 20.738 10.5179 20.7339L14.6028 9.19169C14.6037 9.18918 14.6061 9.1875 14.6087 9.1875H18.9694C18.9721 9.1875 18.9745 9.18919 18.9753 9.19172L22.9996 20.734C23.001 20.7381 22.998 20.7423 22.9937 20.7423H10.5239ZM7.00629 20.7875C7.0019 20.7875 6.99887 20.7831 7.0004 20.779L10.0423 12.658C10.0432 12.6555 10.0455 12.6539 10.0482 12.6539H12.6912C12.6956 12.6539 12.6986 12.6583 12.6971 12.6623L9.7557 20.7833C9.7548 20.7858 9.75243 20.7875 9.74979 20.7875H7.00629Z" fill="white"/>
</svg>
