<svg width="30" height="30" viewBox="0 0 30 30" fill="none" xmlns="http://www.w3.org/2000/svg">
<path d="M30 15C30 23.2843 23.2843 30 15 30C6.71573 30 0 23.2843 0 15C0 6.71573 6.71573 0 15 0C23.2843 0 30 6.71573 30 15Z" fill="#75D0C1"/>
<path fill-rule="evenodd" clip-rule="evenodd" d="M19.0095 8.22006L19.0587 12.5435L15.2878 14.3537L15.2413 10.2716L19.0095 8.22006Z" fill="white"/>
<path fill-rule="evenodd" clip-rule="evenodd" d="M22.7897 15.0327L19.0567 17.1679L15.3215 15.0293L19.0548 13.0683L22.7897 15.0327Z" fill="white"/>
<path fill-rule="evenodd" clip-rule="evenodd" d="M14.6575 15.0327L10.9245 17.1679L7.18933 15.0293L10.9226 13.0683L14.6575 15.0327Z" fill="white"/>
<path fill-rule="evenodd" clip-rule="evenodd" d="M10.8826 8.20235L14.7572 10.1213L14.6581 14.303L10.9998 12.4912L10.8826 8.20235Z" fill="white"/>
<path fill-rule="evenodd" clip-rule="evenodd" d="M19.1149 21.7977L15.2404 19.8787L15.3394 15.6969L18.9977 17.5088L19.1149 21.7977Z" fill="white"/>
<path fill-rule="evenodd" clip-rule="evenodd" d="M11.0164 21.8366L10.9672 17.5131L14.7381 15.7029L14.7846 19.785L11.0164 21.8366Z" fill="white"/>
</svg>
