<svg width="30" height="30" viewBox="0 0 30 30" fill="none" xmlns="http://www.w3.org/2000/svg">
<path d="M30 15C30 23.2843 23.2843 30 15 30C6.71573 30 0 23.2843 0 15C0 6.71573 6.71573 0 15 0C23.2843 0 30 6.71573 30 15Z" fill="#A0A29F"/>
<path fill-rule="evenodd" clip-rule="evenodd" d="M22.0312 16C22.0312 19.8832 18.8832 23.0312 15 23.0312C11.1168 23.0312 7.96875 19.8832 7.96875 16C7.96875 12.1168 11.1168 8.96875 15 8.96875C18.8832 8.96875 22.0312 12.1168 22.0312 16ZM19.0178 16C19.0178 18.219 17.219 20.0178 15 20.0178C12.781 20.0178 10.9822 18.219 10.9822 16C10.9822 13.781 12.781 11.9822 15 11.9822C17.219 11.9822 19.0178 13.781 19.0178 16Z" fill="white"/>
</svg>
