<svg width="30" height="30" viewBox="0 0 30 30" fill="none" xmlns="http://www.w3.org/2000/svg">
<path d="M30 15C30 23.2843 23.2843 30 15 30C6.71573 30 0 23.2843 0 15C0 6.71573 6.71573 0 15 0C23.2843 0 30 6.71573 30 15Z" fill="#B763CF"/>
<path fill-rule="evenodd" clip-rule="evenodd" d="M20.3694 19.2953C21.9851 18.0034 23 16.1368 23 14.0609C23 10.1613 19.4183 7 15 7C10.5817 7 7 10.1613 7 14.0609C7 16.0618 7.94293 17.8683 9.45798 19.1532C9.36616 19.4702 9.31579 19.815 9.31579 20.1756C9.31579 21.7355 10.2583 23 11.4211 23C12.1766 23 12.8391 22.4661 13.2105 21.6642C13.5819 22.4661 14.2445 23 15 23C15.6887 23 16.3001 22.5564 16.6842 21.8705C17.0683 22.5564 17.6798 23 18.3684 23C19.5311 23 20.4737 21.7355 20.4737 20.1756C20.4737 19.8682 20.4371 19.5723 20.3694 19.2953ZM19.6316 14.201C19.6316 16.1808 17.5108 17.7858 14.8948 17.7858C12.2787 17.7858 10.1579 16.1808 10.1579 14.201C10.1579 12.2212 12.2787 10.6162 14.8948 10.6162C17.5108 10.6162 19.6316 12.2212 19.6316 14.201Z" fill="white"/>
</svg>
