<svg width="24" height="24" viewBox="0 0 24 24" fill="none" xmlns="http://www.w3.org/2000/svg">
<path d="M22 12C22 12.1904 21.9946 12.3806 21.9837 12.5702C21.9837 12.5702 21.9837 12.5702 21.9837 12.5702C21.9199 13.6885 21.6685 14.7895 21.2388 15.8268C20.7362 17.0401 19.9997 18.1425 19.0711 19.0711C18.1425 19.9997 17.0401 20.7362 15.8268 21.2388C14.6136 21.7413 13.3132 22 12 22C10.6868 22 9.38642 21.7413 8.17317 21.2388C6.95991 20.7362 5.85752 19.9997 4.92893 19.0711C4.00035 18.1425 3.26375 17.0401 2.7612 15.8268C2.40576 14.9687 2.17233 14.067 2.06612 13.1481H9.22836C9.37913 13.512 9.6001 13.8427 9.87868 14.1213C10.1573 14.3999 10.488 14.6209 10.8519 14.7716C11.2159 14.9224 11.606 15 12 15C12.394 15 12.7841 14.9224 13.1481 14.7716C13.512 14.6209 13.8427 14.3999 14.1213 14.1213C14.3999 13.8427 14.6209 13.512 14.7716 13.1481H21.9339L21.9837 12.5702L22 12Z" fill="#1E1E1E"/>
<path d="M21.9837 12.5702C21.9837 12.5702 21.9837 12.5702 21.9837 12.5702V12.5702Z" fill="#1E1E1E"/>
<path d="M2 12C2 11.8096 2.00544 11.6194 2.01627 11.4298C2.01627 11.4298 2.01627 11.4298 2.01627 11.4298C2.08014 10.3115 2.33153 9.21049 2.7612 8.17317C3.26375 6.95991 4.00035 5.85752 4.92893 4.92893C5.85752 4.00035 6.95991 3.26375 8.17317 2.7612C9.38642 2.25866 10.6868 2 12 2C13.3132 2 14.6136 2.25866 15.8268 2.7612C17.0401 3.26375 18.1425 4.00035 19.0711 4.92893C19.9997 5.85752 20.7362 6.95991 21.2388 8.17317C21.5942 9.03128 21.8277 9.93296 21.9339 10.8519H14.7716C14.6209 10.488 14.3999 10.1573 14.1213 9.87868C13.8427 9.6001 13.512 9.37912 13.1481 9.22836C12.7841 9.0776 12.394 9 12 9C11.606 9 11.2159 9.0776 10.852 9.22836C10.488 9.37912 10.1573 9.6001 9.87868 9.87868C9.6001 10.1573 9.37913 10.488 9.22836 10.8519H2.06612L2.01627 11.4298L2 12Z" fill="#1E1E1E"/>
<path d="M2.01627 11.4298C2.01627 11.4298 2.01627 11.4298 2.01627 11.4298V11.4298Z" fill="#1E1E1E"/>
<path d="M13.1765 12C13.1765 12.6497 12.6497 13.1765 12 13.1765C11.3503 13.1765 10.8235 12.6497 10.8235 12C10.8235 11.3503 11.3503 10.8235 12 10.8235C12.6497 10.8235 13.1765 11.3503 13.1765 12Z" fill="#1E1E1E"/>
</svg>
