<svg width="30" height="30" viewBox="0 0 30 30" fill="none" xmlns="http://www.w3.org/2000/svg">
<path d="M30 15C30 23.2843 23.2843 30 15 30C6.71573 30 0 23.2843 0 15C0 6.71573 6.71573 0 15 0C23.2843 0 30 6.71573 30 15Z" fill="#FA8581"/>
<path fill-rule="evenodd" clip-rule="evenodd" d="M21.2477 20.287C21.2477 20.287 19.2302 21.9051 15.2154 21.2355C12.1695 20.7275 10.5449 17.3698 10.5449 15.565C10.5449 11.2859 13.712 10.3121 15.8531 10.3121C17.9942 10.3121 19.391 12.3996 19.391 14.0159C19.391 15.6321 18.2479 17.0458 16.4689 17.0458C14.69 17.0458 14.1631 15.7969 14.1631 14.6487C14.1631 13.5005 15.0921 13.096 15.9393 13.096C16.7865 13.096 17.0766 13.8193 17.0766 14.4409C17.0766 15.0626 16.5943 15.2852 16.192 15.2852C15.7897 15.2852 15.7499 15.0823 15.5959 14.869C15.4419 14.6557 15.7923 13.8483 15.2154 13.8483C14.6385 13.8483 14.531 14.7765 14.531 14.7765C14.531 14.7765 14.7413 16.5681 16.4689 16.5372C18.1966 16.5063 19.0162 15.1707 18.778 13.8483C18.5398 12.5259 17.2565 11.1208 15.0042 11.4047C12.7518 11.6887 11.8322 13.9644 12.2376 16.3964C12.6429 18.8284 15.5565 20.2376 17.8472 19.7306C20.1381 19.2236 22.4197 17.5652 22.4197 13.3604C22.4197 9.15559 18.778 6.62812 14.4357 7.04466C10.0933 7.4612 7.39778 11.2576 7.57032 15.819C7.74286 20.3804 12.0711 22.8647 15.7311 22.9927C19.391 23.1207 21.6348 21.0021 21.6348 21.0021C21.6348 21.0021 22.1393 20.5521 21.9415 20.2008C21.7437 19.8494 21.2477 20.287 21.2477 20.287Z" fill="white"/>
</svg>
