<svg width="30" height="30" viewBox="0 0 30 30" fill="none" xmlns="http://www.w3.org/2000/svg">
<path d="M30 15C30 23.2843 23.2843 30 15 30C6.71573 30 0 23.2843 0 15C0 6.71573 6.71573 0 15 0C23.2843 0 30 6.71573 30 15Z" fill="#C9BB8A"/>
<path fill-rule="evenodd" clip-rule="evenodd" d="M19.3481 14.6487L19.347 14.6443L20.3678 8.69224C20.3683 8.6895 20.3707 8.6875 20.3734 8.6875H20.6965C20.699 8.6875 20.7012 8.68912 20.7019 8.69149L23.0016 15.9728C23.0023 15.9751 23.0015 15.9776 22.9997 15.9791L21.3041 17.3029C21.3015 17.3049 21.2979 17.3044 21.296 17.3018L19.3481 14.6487ZM6.96875 18.5944C6.96875 18.5969 6.97034 18.5991 6.97268 18.5999L10.468 19.7427L10.473 19.742L18.2858 14.3482L18.2882 14.3444L19.126 8.72276C19.1265 8.71931 19.1238 8.71621 19.1204 8.71621H12.2002L12.1958 8.71828L6.97006 15.0223L6.96875 15.026V18.5944ZM11.9245 20.0339L15.743 21.2847L15.7481 21.284L20.2943 18.0229C20.2968 18.0212 20.2975 18.0177 20.2957 18.0151L18.5915 15.479C18.5897 15.4764 18.5862 15.4757 18.5835 15.4775L11.9245 20.0339Z" fill="white"/>
</svg>
