<svg width="30" height="30" viewBox="0 0 30 30" fill="none" xmlns="http://www.w3.org/2000/svg">
<path d="M30 15C30 23.2843 23.2843 30 15 30C6.71573 30 0 23.2843 0 15C0 6.71573 6.71573 0 15 0C23.2843 0 30 6.71573 30 15Z" fill="#5695A3"/>
<path fill-rule="evenodd" clip-rule="evenodd" d="M7.0016 14.954C6.99947 14.9503 6.99947 14.9458 7.00159 14.9422L11.0248 8.06826C11.0269 8.06469 11.0308 8.0625 11.0349 8.0625H19.0092C19.0133 8.0625 19.0172 8.06471 19.0193 8.06831L22.9984 14.9422C23.0005 14.9458 23.0005 14.9503 22.9984 14.9539L19.0193 21.8201C19.0172 21.8237 19.0133 21.8259 19.0092 21.8259H11.0349C11.0308 21.8259 11.0269 21.8237 11.0248 21.8202L7.0016 14.954ZM18.7068 14.9442C18.7068 16.9907 17.0478 18.6497 15.0013 18.6497C12.9548 18.6497 11.2957 16.9907 11.2957 14.9442C11.2957 12.8977 12.9548 11.2387 15.0013 11.2387C17.0478 11.2387 18.7068 12.8977 18.7068 14.9442Z" fill="white"/>
</svg>
