<svg width="30" height="30" viewBox="0 0 30 30" fill="none" xmlns="http://www.w3.org/2000/svg">
<path d="M30 15C30 23.2843 23.2843 30 15 30C6.71573 30 0 23.2843 0 15C0 6.71573 6.71573 0 15 0C23.2843 0 30 6.71573 30 15Z" fill="#539DDF"/>
<path fill-rule="evenodd" clip-rule="evenodd" d="M20.1929 17.8286C20.1929 20.6843 17.8692 22.9993 15.0027 22.9993C12.1362 22.9993 9.8125 20.6843 9.8125 17.8286C9.8125 15.0512 14.7219 7.42337 14.9912 7.00712C14.9973 6.99763 15.0081 6.99763 15.0142 7.00712C15.2834 7.42337 20.1929 15.0512 20.1929 17.8286ZM14.1375 21.3416C11.5037 20.7653 11.9544 17.8478 11.9544 17.8478C11.9544 17.8478 12.6736 19.609 14.4189 20.1795C16.1642 20.75 18.2733 19.9133 18.2733 19.9133C18.2733 19.9133 16.7712 21.9178 14.1375 21.3416Z" fill="white"/>
</svg>
